<svg width="80" height="80" viewBox="0 0 80 80" fill="none" xmlns="http://www.w3.org/2000/svg">
<mask id="mask0_0_136" style="mask-type:alpha" maskUnits="userSpaceOnUse" x="5" y="15" width="70" height="50">
<path d="M6.6665 23.3334H16.2166C18.639 23.3334 20.9621 22.1344 22.675 20.0002C25.1213 16.9523 28.7397 15.888 32.0217 17.2511L36.6665 19.1802M6.6665 53.2228H12.0688C15.9337 53.2228 17.8662 53.2228 19.6936 53.7377C19.7824 53.7627 19.871 53.7886 19.9593 53.8154C21.7751 54.367 23.383 55.4032 26.5989 57.4758C32.8928 61.5321 36.0397 63.5603 39.4688 63.3133C39.6304 63.3016 39.7918 63.2862 39.9527 63.2669C43.3653 62.859 46.0397 60.2736 51.3884 55.1027L56.6665 50.0001" stroke="#141B34" stroke-width="3" stroke-linecap="round"/>
<path d="M73.3333 24.1129H64.9439C61.3914 24.1129 58.8829 22.1824 56.3344 19.6087C54.6837 17.9416 52.5769 16.9592 50.3626 16.8239C47.8868 16.6726 45.0176 16.4596 42.6133 17.1201C39.9371 17.8553 38.1699 19.8689 36.3007 21.9733L31.477 27.4038C29.5077 29.6208 29.5077 33.2153 31.477 35.4323C33.1767 37.3458 35.8398 37.6426 37.8398 36.1416C39.2791 35.0614 40.9143 33.317 42.6102 32.7676C44.519 32.1493 45.7029 33.5383 46.7847 34.9997L54.5186 45.4479C57.3889 49.3256 58.8241 51.2644 60.786 52.2989C62.7479 53.3334 64.9897 53.3334 69.4733 53.3334H73.3333" stroke="#141B34" stroke-width="3" stroke-linecap="round"/>
</mask>
<g mask="url(#mask0_0_136)">
<rect width="80" height="80" fill="#01090F"/>
</g>
</svg>
