<svg width="35" height="36" viewBox="0 0 35 36" fill="none" xmlns="http://www.w3.org/2000/svg">
<path d="M5.50887 18.356C4.12634 15.9453 3.45878 13.9768 3.05627 11.9814C2.46095 9.03024 3.82331 6.14745 6.08018 4.30801C7.03403 3.53058 8.12747 3.79619 8.69151 4.8081L9.9649 7.0926C10.9742 8.90335 11.4789 9.80872 11.3788 10.7686C11.2787 11.7285 10.5981 12.5102 9.23688 14.0738L5.50887 18.356ZM5.50887 18.356C8.30724 23.2354 12.6988 27.6294 17.5839 30.431M17.5839 30.431C19.9946 31.8135 21.9631 32.4811 23.9585 32.8836C26.9096 33.4789 29.7924 32.1165 31.6319 29.8597C32.4093 28.9058 32.1437 27.8124 31.1318 27.2484L28.8473 25.975C27.0365 24.9656 26.1311 24.461 25.1713 24.5611C24.2114 24.6612 23.4296 25.3418 21.8661 26.703L17.5839 30.431Z" stroke="#01090F" stroke-width="2" stroke-linejoin="round"/>
</svg>
