<svg width="21" height="31" viewBox="0 0 21 31" fill="none" xmlns="http://www.w3.org/2000/svg">
<path fill-rule="evenodd" clip-rule="evenodd" d="M2.01499 13.0092C0.589092 13.0092 0.291504 13.289 0.291504 14.6296V17.0601C0.291504 18.4007 0.589092 18.6805 2.01499 18.6805H5.46196V28.4027C5.46196 29.7433 5.75955 30.0231 7.18544 30.0231H10.6324C12.0583 30.0231 12.3559 29.7433 12.3559 28.4027V18.6805H16.2263C17.3078 18.6805 17.5864 18.4829 17.8835 17.5053L18.6221 15.0747C19.1311 13.4001 18.8175 13.0092 16.965 13.0092H12.3559V8.9583C12.3559 8.06339 13.1275 7.33793 14.0794 7.33793H18.9847C20.4106 7.33793 20.7082 7.05814 20.7082 5.71756V2.47682C20.7082 1.13623 20.4106 0.856445 18.9847 0.856445H14.0794C9.32011 0.856445 5.46196 4.48377 5.46196 8.9583V13.0092H2.01499Z" fill="white"/>
</svg>
