<svg width="29" height="29" viewBox="0 0 29 29" fill="none" xmlns="http://www.w3.org/2000/svg">
<path d="M0.645996 14.4401C0.645996 7.90919 0.645996 4.64373 2.67489 2.61483C4.70379 0.585938 7.96925 0.585938 14.5002 0.585938C21.0311 0.585938 24.2965 0.585938 26.3254 2.61483C28.3543 4.64373 28.3543 7.90919 28.3543 14.4401C28.3543 20.971 28.3543 24.2365 26.3254 26.2654C24.2965 28.2943 21.0311 28.2943 14.5002 28.2943C7.96925 28.2943 4.70379 28.2943 2.67489 26.2654C0.645996 24.2365 0.645996 20.971 0.645996 14.4401Z" fill="white"/>
<path d="M21.0625 14.4399C21.0625 18.0643 18.1244 21.0024 14.5 21.0024C10.8756 21.0024 7.9375 18.0643 7.9375 14.4399C7.9375 10.8156 10.8756 7.87744 14.5 7.87744C18.1244 7.87744 21.0625 10.8156 21.0625 14.4399Z" stroke="#01090F" stroke-width="2"/>
<path d="M22.5322 6.41919L22.5191 6.41919" stroke="#01090F" stroke-width="2.5" stroke-linecap="round" stroke-linejoin="round"/>
</svg>
