<svg width="29" height="33" viewBox="0 0 29 33" fill="none" xmlns="http://www.w3.org/2000/svg">
<path d="M19.6043 14.9816C19.6043 17.8006 17.3191 20.0858 14.5002 20.0858C11.6812 20.0858 9.396 17.8006 9.396 14.9816C9.396 12.1627 11.6812 9.87744 14.5002 9.87744C17.3191 9.87744 19.6043 12.1627 19.6043 14.9816Z" stroke="#01090F" stroke-width="2"/>
<path d="M14.5 1.85669C21.6029 1.85669 27.625 7.73811 27.625 14.8734C27.625 22.1224 21.5048 27.2094 15.8519 30.6685C15.4399 30.9011 14.974 31.0234 14.5 31.0234C14.026 31.0234 13.5601 30.9011 13.1481 30.6685C7.50568 27.1756 1.375 22.1474 1.375 14.8734C1.375 7.73811 7.3971 1.85669 14.5 1.85669Z" stroke="#01090F" stroke-width="2"/>
</svg>
