<svg width="35" height="36" viewBox="0 0 35 36" fill="none" xmlns="http://www.w3.org/2000/svg">
<path d="M2.9165 9.68994L12.998 15.4022C16.7147 17.5081 18.285 17.5081 22.0017 15.4022L32.0832 9.68994" stroke="#01090F" stroke-width="2" stroke-linejoin="round"/>
<path d="M2.9395 20.592C3.03483 25.0625 3.0825 27.2978 4.73207 28.9537C6.38163 30.6095 8.67741 30.6672 13.269 30.7825C16.0988 30.8536 18.9009 30.8536 21.7307 30.7825C26.3223 30.6672 28.6181 30.6095 30.2676 28.9537C31.9172 27.2978 31.9648 25.0625 32.0602 20.592C32.0908 19.1545 32.0908 17.7256 32.0602 16.2881C31.9648 11.8175 31.9172 9.58224 30.2676 7.92641C28.6181 6.27057 26.3223 6.21289 21.7307 6.09752C18.9008 6.02642 16.0988 6.02641 13.269 6.09751C8.6774 6.21287 6.38162 6.27054 4.73206 7.92638C3.0825 9.58222 3.03483 11.8175 2.93949 16.2881C2.90884 17.7255 2.90884 19.1545 2.9395 20.592Z" stroke="#01090F" stroke-width="2" stroke-linejoin="round"/>
</svg>
