<svg width="80" height="80" viewBox="0 0 80 80" fill="none" xmlns="http://www.w3.org/2000/svg">
<path d="M58.3335 58.3335L73.3335 73.3335" stroke="#01090F" stroke-width="3" stroke-linecap="round" stroke-linejoin="round"/>
<path d="M66.667 36.6667C66.667 20.0982 53.2355 6.66675 36.667 6.66675C20.0984 6.66675 6.66699 20.0982 6.66699 36.6667C6.66699 53.2353 20.0984 66.6667 36.667 66.6667C53.2355 66.6667 66.667 53.2353 66.667 36.6667Z" stroke="#01090F" stroke-width="3" stroke-linejoin="round"/>
<path d="M38.667 20.3335L20.3337 28.6668" stroke="#01090F" stroke-width="3" stroke-linecap="round" stroke-linejoin="round"/>
<path d="M37 22V53.6667H28.6667C25.524 53.6667 23.9526 53.6667 22.9763 52.6904C22 51.714 22 50.1427 22 47V28.6667" stroke="#01090F" stroke-width="3" stroke-linecap="round" stroke-linejoin="round"/>
<path d="M37 28.6667L53.6667 37.0001" stroke="#01090F" stroke-width="3" stroke-linecap="round" stroke-linejoin="round"/>
<path d="M33.667 53.6662H45.3337C48.4764 53.6662 50.0477 53.6662 51.024 52.6899C52.0003 51.7135 52.0003 50.1422 52.0003 46.9995V36.1667" stroke="#01090F" stroke-width="3" stroke-linecap="round" stroke-linejoin="round"/>
<path d="M47 33.6667L47 28.6667" stroke="#01090F" stroke-width="3" stroke-linecap="round" stroke-linejoin="round"/>
<path d="M28.667 35.3335H30.3337M28.667 42.0002H30.3337" stroke="#01090F" stroke-width="3" stroke-linecap="round" stroke-linejoin="round"/>
<path d="M43.667 40.3335H45.3337" stroke="#01090F" stroke-width="3" stroke-linecap="round" stroke-linejoin="round"/>
<path d="M44.5 53.6667V47" stroke="#01090F" stroke-width="3" stroke-linecap="round" stroke-linejoin="round"/>
</svg>
