<svg width="12" height="18" viewBox="0 0 12 18" fill="none" xmlns="http://www.w3.org/2000/svg">
<path d="M8.02002 8.16293C8.02002 8.16293 8.15953 8.02342 8.43855 7.7444C8.71756 7.46538 8.85707 6.93153 8.85707 6.14284C8.85707 5.35415 8.57806 4.68079 8.02002 4.12275C7.46198 3.56472 6.78862 3.2857 5.99993 3.2857C5.21124 3.2857 4.53788 3.56472 3.97984 4.12275C3.42181 4.68079 3.14279 5.35415 3.14279 6.14284C3.14279 6.93153 3.42181 7.60489 3.97984 8.16293C4.53788 8.72097 5.21124 8.99998 5.99993 8.99998C6.78862 8.99998 7.46198 8.72097 8.02002 8.16293ZM11.7142 6.14284C11.7142 6.95385 11.5914 7.61977 11.3459 8.14061L7.28341 16.779C7.16436 17.0245 6.98765 17.218 6.75328 17.3594C6.5189 17.5007 6.26779 17.5714 5.99993 17.5714C5.73207 17.5714 5.48096 17.5007 5.24658 17.3594C5.01221 17.218 4.83922 17.0245 4.72761 16.779L0.653948 8.14061C0.408412 7.61977 0.285645 6.95385 0.285645 6.14284C0.285645 4.56546 0.84368 3.21873 1.95975 2.10266C3.07582 0.986591 4.42255 0.428555 5.99993 0.428555C7.57731 0.428555 8.92404 0.986591 10.0401 2.10266C11.1562 3.21873 11.7142 4.56546 11.7142 6.14284Z" fill="#FAFAFA"/>
</svg>
